<svg width="1400" height="1080" viewBox="0 0 1400 1080" fill="none" xmlns="http://www.w3.org/2000/svg">
<rect width="1400" height="1080" fill="#FAF9F8"/>
<rect x="697" y="102" width="618" height="870" rx="24" fill="#EEECEA"/>
<path d="M733.348 937.131H735.888C735.811 934.335 733.34 932.307 729.794 932.307C726.291 932.307 723.607 934.31 723.607 937.318C723.607 939.747 725.345 941.17 728.149 941.929L730.212 942.491C732.078 942.986 733.519 943.599 733.519 945.151C733.519 946.855 731.891 947.98 729.649 947.98C727.621 947.98 725.934 947.077 725.78 945.176H723.138C723.309 948.338 725.755 950.29 729.666 950.29C733.766 950.29 736.127 948.134 736.127 945.176C736.127 942.031 733.323 940.812 731.107 940.267L729.402 939.824C728.039 939.474 726.223 938.835 726.232 937.165C726.232 935.682 727.587 934.582 729.735 934.582C731.738 934.582 733.161 935.52 733.348 937.131ZM747.362 944.571C747.37 946.795 745.717 947.852 744.285 947.852C742.708 947.852 741.617 946.71 741.617 944.929V936.909H739.069V945.236C739.069 948.483 740.85 950.17 743.365 950.17C745.333 950.17 746.671 949.131 747.277 947.733H747.413V950H749.919V936.909H747.362V944.571ZM753.547 950H756.036V947.963H756.249C756.709 948.798 757.647 950.256 760.033 950.256C763.203 950.256 765.505 947.716 765.505 943.48C765.505 939.236 763.169 936.739 760.007 936.739C757.578 936.739 756.701 938.222 756.249 939.031H756.095V932.545H753.547V950ZM756.044 943.455C756.044 940.719 757.238 938.903 759.462 938.903C761.772 938.903 762.931 940.855 762.931 943.455C762.931 946.08 761.738 948.082 759.462 948.082C757.272 948.082 756.044 946.207 756.044 943.455ZM770.914 942.227C770.914 940.139 772.193 938.946 773.965 938.946C775.696 938.946 776.744 940.08 776.744 941.98V950H779.292V941.673C779.292 938.435 777.511 936.739 774.835 936.739C772.866 936.739 771.579 937.651 770.974 939.04H770.812V936.909H768.366V950H770.914V942.227ZM788.352 950.264C791.207 950.264 793.227 948.858 793.806 946.727L791.394 946.293C790.934 947.528 789.826 948.159 788.377 948.159C786.196 948.159 784.73 946.744 784.662 944.222H793.968V943.318C793.968 938.588 791.139 936.739 788.173 936.739C784.525 936.739 782.122 939.517 782.122 943.54C782.122 947.605 784.491 950.264 788.352 950.264ZM784.67 942.312C784.772 940.455 786.119 938.844 788.19 938.844C790.167 938.844 791.463 940.31 791.471 942.312H784.67ZM802.907 936.909H800.222V933.773H797.674V936.909H795.756V938.955H797.674V946.685C797.665 949.062 799.48 950.213 801.492 950.17C802.301 950.162 802.847 950.009 803.145 949.898L802.685 947.793C802.514 947.827 802.199 947.903 801.79 947.903C800.963 947.903 800.222 947.631 800.222 946.156V938.955H802.907V936.909Z" fill="#666361"/>
<path d="M1158.69 948.271V935.908H1156.7L1152.62 938.584V940.635L1156.53 938.086H1156.69V948.271H1152.64V950H1156.69H1158.69H1162.55V948.271H1158.69ZM1172.42 941.729C1172.45 942.119 1172.46 942.529 1172.46 942.959C1172.46 946.631 1171.45 948.584 1169.56 948.584C1168.29 948.584 1167.42 947.715 1166.98 946.055L1172.42 941.729ZM1166.69 944.16C1166.66 943.779 1166.65 943.379 1166.65 942.959C1166.65 939.277 1167.65 937.334 1169.56 937.334C1170.83 937.334 1171.7 938.203 1172.13 939.873L1166.69 944.16ZM1169.56 935.596C1166.4 935.596 1164.65 938.223 1164.65 942.959C1164.65 947.686 1166.4 950.312 1169.56 950.312C1172.71 950.312 1174.47 947.686 1174.47 942.959C1174.47 938.223 1172.71 935.596 1169.56 935.596ZM1181.91 950.098C1182.95 950.098 1183.79 949.229 1183.79 948.184C1183.79 947.129 1182.95 946.27 1181.91 946.27C1180.88 946.27 1180.04 947.129 1180.04 948.184C1180.04 949.229 1180.88 950.098 1181.91 950.098ZM1197.15 941.729C1197.18 942.119 1197.19 942.529 1197.19 942.959C1197.19 946.631 1196.18 948.584 1194.29 948.584C1193.02 948.584 1192.15 947.715 1191.71 946.055L1197.15 941.729ZM1191.41 944.16C1191.38 943.779 1191.38 943.379 1191.38 942.959C1191.38 939.277 1192.38 937.334 1194.29 937.334C1195.55 937.334 1196.42 938.203 1196.85 939.873L1191.41 944.16ZM1194.29 935.596C1191.13 935.596 1189.37 938.223 1189.37 942.959C1189.37 947.686 1191.13 950.312 1194.29 950.312C1197.44 950.312 1199.2 947.686 1199.2 942.959C1199.2 938.223 1197.44 935.596 1194.29 935.596ZM1206.64 950.098C1207.67 950.098 1208.51 949.229 1208.51 948.184C1208.51 947.129 1207.67 946.27 1206.64 946.27C1205.6 946.27 1204.76 947.129 1204.76 948.184C1204.76 949.229 1205.6 950.098 1206.64 950.098ZM1221.87 941.729C1221.9 942.119 1221.91 942.529 1221.91 942.959C1221.91 946.631 1220.91 948.584 1219.01 948.584C1217.74 948.584 1216.87 947.715 1216.43 946.055L1221.87 941.729ZM1216.14 944.16C1216.11 943.779 1216.1 943.379 1216.1 942.959C1216.1 939.277 1217.11 937.334 1219.01 937.334C1220.28 937.334 1221.15 938.203 1221.58 939.873L1216.14 944.16ZM1219.01 935.596C1215.86 935.596 1214.1 938.223 1214.1 942.959C1214.1 947.686 1215.86 950.312 1219.01 950.312C1222.17 950.312 1223.92 947.686 1223.92 942.959C1223.92 938.223 1222.17 935.596 1219.01 935.596ZM1231.37 950.098C1232.4 950.098 1233.24 949.229 1233.24 948.184C1233.24 947.129 1232.4 946.27 1231.37 946.27C1230.33 946.27 1229.49 947.129 1229.49 948.184C1229.49 949.229 1230.33 950.098 1231.37 950.098ZM1246.6 941.729C1246.63 942.119 1246.64 942.529 1246.64 942.959C1246.64 946.631 1245.63 948.584 1243.74 948.584C1242.47 948.584 1241.6 947.715 1241.16 946.055L1246.6 941.729ZM1240.87 944.16C1240.84 943.779 1240.83 943.379 1240.83 942.959C1240.83 939.277 1241.83 937.334 1243.74 937.334C1245.01 937.334 1245.88 938.203 1246.31 939.873L1240.87 944.16ZM1243.74 935.596C1240.58 935.596 1238.83 938.223 1238.83 942.959C1238.83 947.686 1240.58 950.312 1243.74 950.312C1246.89 950.312 1248.65 947.686 1248.65 942.959C1248.65 938.223 1246.89 935.596 1243.74 935.596ZM1253.64 951.562L1260.47 934.346H1258.5L1251.72 951.562H1253.64ZM1263.8 939.951V940.01H1265.72V939.951C1265.72 938.379 1266.76 937.334 1268.32 937.334C1269.87 937.334 1270.89 938.271 1270.89 939.717C1270.89 940.781 1270.44 941.523 1268.61 943.506L1263.89 948.604V950H1273.11V948.223H1266.75V948.057L1269.89 944.707C1272.19 942.305 1272.89 941.094 1272.89 939.609C1272.89 937.236 1271.06 935.615 1268.38 935.615C1265.69 935.615 1263.8 937.412 1263.8 939.951ZM1282.3 950H1284.19V947.109H1286.26V945.4H1284.18V941.504H1282.35V945.4H1278.07V945.264L1282.62 935.908H1280.56L1275.93 945.488V947.109H1282.3V950Z" fill="#666361"/>
<path d="M344 159L697 539.5M697 539.5L257.5 287.5M697 539.5L207 417M697 539.5H178M697 539.5L207 676M697 539.5L257.5 814M697 539.5L344 925M697 539.5L1060.5 294M697 539.5L1057 758.5M697 539.5H1198.5" stroke="#C65835" stroke-width="3"/>
<rect x="274" y="889" width="133" height="68" rx="34" fill="#FAF9F8"/>
<rect x="190" y="777" width="133" height="68" rx="34" fill="#FAF9F8"/>
<rect x="142" y="641" width="133" height="68" rx="34" fill="#FAF9F8"/>
<rect x="111" y="507" width="133" height="68" rx="34" fill="#FAF9F8"/>
<rect x="143" y="381" width="133" height="68" rx="34" fill="#FAF9F8"/>
<rect x="190" y="251" width="133" height="68" rx="34" fill="#FAF9F8"/>
<rect x="274" y="123" width="133" height="68" rx="34" fill="#FAF9F8"/>
<rect x="1038" y="251" width="144" height="68" rx="34" fill="#EEECEA"/>
<rect x="1122" y="505" width="144" height="68" rx="34" fill="#EEECEA"/>
<rect x="1038" y="732" width="144" height="68" rx="34" fill="#EEECEA"/>
<path d="M1049 285.5C1049 273.074 1059.07 263 1071.5 263H1148.5C1160.93 263 1171 273.074 1171 285.5V285.5C1171 297.926 1160.93 308 1148.5 308H1071.5C1059.07 308 1049 297.926 1049 285.5V285.5Z" fill="#242424"/>
<path d="M1084.85 284.105C1084.33 282.068 1082.73 280.739 1079.9 280.739C1076.95 280.739 1074.85 282.298 1074.85 284.616C1074.85 286.474 1075.97 287.71 1078.43 288.256L1080.64 288.741C1081.91 289.023 1082.49 289.585 1082.49 290.403C1082.49 291.418 1081.41 292.21 1079.74 292.21C1078.22 292.21 1077.24 291.554 1076.93 290.267L1074.47 290.642C1074.89 292.96 1076.82 294.264 1079.76 294.264C1082.92 294.264 1085.11 292.585 1085.11 290.216C1085.11 288.366 1083.93 287.224 1081.53 286.67L1079.45 286.193C1078.01 285.852 1077.39 285.366 1077.4 284.48C1077.39 283.474 1078.48 282.759 1079.93 282.759C1081.51 282.759 1082.25 283.636 1082.55 284.514L1084.85 284.105ZM1093.55 294.264C1096.41 294.264 1098.43 292.858 1099.01 290.727L1096.6 290.293C1096.14 291.528 1095.03 292.159 1093.58 292.159C1091.4 292.159 1089.93 290.744 1089.86 288.222H1099.17V287.318C1099.17 282.588 1096.34 280.739 1093.38 280.739C1089.73 280.739 1087.32 283.517 1087.32 287.54C1087.32 291.605 1089.69 294.264 1093.55 294.264ZM1089.87 286.312C1089.97 284.455 1091.32 282.844 1093.39 282.844C1095.37 282.844 1096.67 284.31 1096.67 286.312H1089.87ZM1102 294H1104.55V286.006C1104.55 284.293 1105.87 283.057 1107.67 283.057C1108.2 283.057 1108.8 283.151 1109 283.21V280.773C1108.75 280.739 1108.25 280.713 1107.92 280.713C1106.39 280.713 1105.07 281.582 1104.6 282.989H1104.46V280.909H1102V294ZM1122.81 280.909H1120.07L1116.76 290.983H1116.63L1113.31 280.909H1110.58L1115.33 294H1118.06L1122.81 280.909ZM1130.37 294.264C1133.23 294.264 1135.25 292.858 1135.83 290.727L1133.42 290.293C1132.96 291.528 1131.85 292.159 1130.4 292.159C1128.22 292.159 1126.75 290.744 1126.68 288.222H1135.99V287.318C1135.99 282.588 1133.16 280.739 1130.2 280.739C1126.55 280.739 1124.14 283.517 1124.14 287.54C1124.14 291.605 1126.51 294.264 1130.37 294.264ZM1126.69 286.312C1126.8 284.455 1128.14 282.844 1130.21 282.844C1132.19 282.844 1133.49 284.31 1133.49 286.312H1126.69ZM1138.82 294H1141.37V286.006C1141.37 284.301 1142.69 283.065 1144.45 283.065C1144.95 283.065 1145.33 283.168 1145.64 283.321L1146.45 281.19C1146.02 280.901 1145.46 280.713 1144.74 280.713C1143.19 280.713 1141.9 281.582 1141.42 282.989H1141.28V280.909H1138.82V294Z" fill="white"/>
<path d="M1133 538.5C1133 526.074 1143.07 516 1155.5 516H1232.5C1244.93 516 1255 526.074 1255 538.5V538.5C1255 550.926 1244.93 561 1232.5 561H1155.5C1143.07 561 1133 550.926 1133 538.5V538.5Z" fill="#242424"/>
<path d="M1168.85 537.105C1168.33 535.068 1166.73 533.739 1163.9 533.739C1160.95 533.739 1158.85 535.298 1158.85 537.616C1158.85 539.474 1159.97 540.71 1162.43 541.256L1164.64 541.741C1165.91 542.023 1166.49 542.585 1166.49 543.403C1166.49 544.418 1165.41 545.21 1163.74 545.21C1162.22 545.21 1161.24 544.554 1160.93 543.267L1158.47 543.642C1158.89 545.96 1160.82 547.264 1163.76 547.264C1166.92 547.264 1169.11 545.585 1169.11 543.216C1169.11 541.366 1167.93 540.224 1165.53 539.67L1163.45 539.193C1162.01 538.852 1161.39 538.366 1161.4 537.48C1161.39 536.474 1162.48 535.759 1163.93 535.759C1165.51 535.759 1166.25 536.636 1166.55 537.514L1168.85 537.105ZM1177.55 547.264C1180.41 547.264 1182.43 545.858 1183.01 543.727L1180.6 543.293C1180.14 544.528 1179.03 545.159 1177.58 545.159C1175.4 545.159 1173.93 543.744 1173.86 541.222H1183.17V540.318C1183.17 535.588 1180.34 533.739 1177.38 533.739C1173.73 533.739 1171.32 536.517 1171.32 540.54C1171.32 544.605 1173.69 547.264 1177.55 547.264ZM1173.87 539.312C1173.97 537.455 1175.32 535.844 1177.39 535.844C1179.37 535.844 1180.67 537.31 1180.67 539.312H1173.87ZM1186 547H1188.55V539.006C1188.55 537.293 1189.87 536.057 1191.67 536.057C1192.2 536.057 1192.8 536.151 1193 536.21V533.773C1192.75 533.739 1192.25 533.713 1191.92 533.713C1190.39 533.713 1189.07 534.582 1188.6 535.989H1188.46V533.909H1186V547ZM1206.81 533.909H1204.07L1200.76 543.983H1200.63L1197.31 533.909H1194.58L1199.33 547H1202.06L1206.81 533.909ZM1214.37 547.264C1217.23 547.264 1219.25 545.858 1219.83 543.727L1217.42 543.293C1216.96 544.528 1215.85 545.159 1214.4 545.159C1212.22 545.159 1210.75 543.744 1210.68 541.222H1219.99V540.318C1219.99 535.588 1217.16 533.739 1214.2 533.739C1210.55 533.739 1208.14 536.517 1208.14 540.54C1208.14 544.605 1210.51 547.264 1214.37 547.264ZM1210.69 539.312C1210.8 537.455 1212.14 535.844 1214.21 535.844C1216.19 535.844 1217.49 537.31 1217.49 539.312H1210.69ZM1222.82 547H1225.37V539.006C1225.37 537.301 1226.69 536.065 1228.45 536.065C1228.95 536.065 1229.33 536.168 1229.64 536.321L1230.45 534.19C1230.02 533.901 1229.46 533.713 1228.74 533.713C1227.19 533.713 1225.9 534.582 1225.42 535.989H1225.28V533.909H1222.82V547Z" fill="white"/>
<path d="M1049 765.5C1049 753.074 1059.07 743 1071.5 743H1148.5C1160.93 743 1171 753.074 1171 765.5V765.5C1171 777.926 1160.93 788 1148.5 788H1071.5C1059.07 788 1049 777.926 1049 765.5V765.5Z" fill="#242424"/>
<path d="M1084.85 764.105C1084.33 762.068 1082.73 760.739 1079.9 760.739C1076.95 760.739 1074.85 762.298 1074.85 764.616C1074.85 766.474 1075.97 767.71 1078.43 768.256L1080.64 768.741C1081.91 769.023 1082.49 769.585 1082.49 770.403C1082.49 771.418 1081.41 772.21 1079.74 772.21C1078.22 772.21 1077.24 771.554 1076.93 770.267L1074.47 770.642C1074.89 772.96 1076.82 774.264 1079.76 774.264C1082.92 774.264 1085.11 772.585 1085.11 770.216C1085.11 768.366 1083.93 767.224 1081.53 766.67L1079.45 766.193C1078.01 765.852 1077.39 765.366 1077.4 764.48C1077.39 763.474 1078.48 762.759 1079.93 762.759C1081.51 762.759 1082.25 763.636 1082.55 764.514L1084.85 764.105ZM1093.55 774.264C1096.41 774.264 1098.43 772.858 1099.01 770.727L1096.6 770.293C1096.14 771.528 1095.03 772.159 1093.58 772.159C1091.4 772.159 1089.93 770.744 1089.86 768.222H1099.17V767.318C1099.17 762.588 1096.34 760.739 1093.38 760.739C1089.73 760.739 1087.32 763.517 1087.32 767.54C1087.32 771.605 1089.69 774.264 1093.55 774.264ZM1089.87 766.312C1089.97 764.455 1091.32 762.844 1093.39 762.844C1095.37 762.844 1096.67 764.31 1096.67 766.312H1089.87ZM1102 774H1104.55V766.006C1104.55 764.293 1105.87 763.057 1107.67 763.057C1108.2 763.057 1108.8 763.151 1109 763.21V760.773C1108.75 760.739 1108.25 760.713 1107.92 760.713C1106.39 760.713 1105.07 761.582 1104.6 762.989H1104.46V760.909H1102V774ZM1122.81 760.909H1120.07L1116.76 770.983H1116.63L1113.31 760.909H1110.58L1115.33 774H1118.06L1122.81 760.909ZM1130.37 774.264C1133.23 774.264 1135.25 772.858 1135.83 770.727L1133.42 770.293C1132.96 771.528 1131.85 772.159 1130.4 772.159C1128.22 772.159 1126.75 770.744 1126.68 768.222H1135.99V767.318C1135.99 762.588 1133.16 760.739 1130.2 760.739C1126.55 760.739 1124.14 763.517 1124.14 767.54C1124.14 771.605 1126.51 774.264 1130.37 774.264ZM1126.69 766.312C1126.8 764.455 1128.14 762.844 1130.21 762.844C1132.19 762.844 1133.49 764.31 1133.49 766.312H1126.69ZM1138.82 774H1141.37V766.006C1141.37 764.301 1142.69 763.065 1144.45 763.065C1144.95 763.065 1145.33 763.168 1145.64 763.321L1146.45 761.19C1146.02 760.901 1145.46 760.713 1144.74 760.713C1143.19 760.713 1141.9 761.582 1141.42 762.989H1141.28V760.909H1138.82V774Z" fill="white"/>
<path d="M153 414.5C153 402.074 163.074 392 175.5 392H241.5C253.926 392 264 402.074 264 414.5V414.5C264 426.926 253.926 437 241.5 437H175.5C163.074 437 153 426.926 153 414.5V414.5Z" fill="#242424"/>
<path d="M184.262 423.264C187.356 423.264 189.359 421.406 189.64 418.858H187.16C186.836 420.273 185.737 421.108 184.279 421.108C182.123 421.108 180.734 419.31 180.734 416.455C180.734 413.651 182.149 411.886 184.279 411.886C185.899 411.886 186.887 412.909 187.16 414.136H189.64C189.368 411.494 187.211 409.739 184.237 409.739C180.547 409.739 178.16 412.517 178.16 416.514C178.16 420.46 180.461 423.264 184.262 423.264ZM194.914 405.545H192.365V423H194.914V405.545ZM198.342 423H200.89V409.909H198.342V423ZM199.629 407.889C200.507 407.889 201.24 407.207 201.24 406.372C201.24 405.537 200.507 404.847 199.629 404.847C198.743 404.847 198.018 405.537 198.018 406.372C198.018 407.207 198.743 407.889 199.629 407.889ZM209.961 423.264C212.816 423.264 214.836 421.858 215.415 419.727L213.003 419.293C212.543 420.528 211.435 421.159 209.986 421.159C207.804 421.159 206.338 419.744 206.27 417.222H215.577V416.318C215.577 411.588 212.748 409.739 209.782 409.739C206.134 409.739 203.73 412.517 203.73 416.54C203.73 420.605 206.1 423.264 209.961 423.264ZM206.279 415.312C206.381 413.455 207.728 411.844 209.799 411.844C211.776 411.844 213.071 413.31 213.08 415.312H206.279ZM220.953 415.227C220.953 413.139 222.231 411.946 224.004 411.946C225.734 411.946 226.782 413.08 226.782 414.98V423H229.331V414.673C229.331 411.435 227.549 409.739 224.873 409.739C222.904 409.739 221.618 410.651 221.012 412.04H220.85V409.909H218.404V423H220.953V415.227ZM238.859 409.909H236.174V406.773H233.626V409.909H231.708V411.955H233.626V419.685C233.618 422.062 235.433 423.213 237.444 423.17C238.254 423.162 238.799 423.009 239.098 422.898L238.637 420.793C238.467 420.827 238.152 420.903 237.743 420.903C236.916 420.903 236.174 420.631 236.174 419.156V411.955H238.859V409.909Z" fill="white"/>
<path d="M122 540.5C122 528.074 132.074 518 144.5 518H210.5C222.926 518 233 528.074 233 540.5V540.5C233 552.926 222.926 563 210.5 563H144.5C132.074 563 122 552.926 122 540.5V540.5Z" fill="#242424"/>
<path d="M153.262 549.264C156.356 549.264 158.359 547.406 158.64 544.858H156.16C155.836 546.273 154.737 547.108 153.279 547.108C151.123 547.108 149.734 545.31 149.734 542.455C149.734 539.651 151.149 537.886 153.279 537.886C154.899 537.886 155.887 538.909 156.16 540.136H158.64C158.368 537.494 156.211 535.739 153.237 535.739C149.547 535.739 147.16 538.517 147.16 542.514C147.16 546.46 149.461 549.264 153.262 549.264ZM163.914 531.545H161.365V549H163.914V531.545ZM167.342 549H169.89V535.909H167.342V549ZM168.629 533.889C169.507 533.889 170.24 533.207 170.24 532.372C170.24 531.537 169.507 530.847 168.629 530.847C167.743 530.847 167.018 531.537 167.018 532.372C167.018 533.207 167.743 533.889 168.629 533.889ZM178.961 549.264C181.816 549.264 183.836 547.858 184.415 545.727L182.003 545.293C181.543 546.528 180.435 547.159 178.986 547.159C176.804 547.159 175.338 545.744 175.27 543.222H184.577V542.318C184.577 537.588 181.748 535.739 178.782 535.739C175.134 535.739 172.73 538.517 172.73 542.54C172.73 546.605 175.1 549.264 178.961 549.264ZM175.279 541.312C175.381 539.455 176.728 537.844 178.799 537.844C180.776 537.844 182.071 539.31 182.08 541.312H175.279ZM189.953 541.227C189.953 539.139 191.231 537.946 193.004 537.946C194.734 537.946 195.782 539.08 195.782 540.98V549H198.331V540.673C198.331 537.435 196.549 535.739 193.873 535.739C191.904 535.739 190.618 536.651 190.012 538.04H189.85V535.909H187.404V549H189.953V541.227ZM207.859 535.909H205.174V532.773H202.626V535.909H200.708V537.955H202.626V545.685C202.618 548.062 204.433 549.213 206.444 549.17C207.254 549.162 207.799 549.009 208.098 548.898L207.637 546.793C207.467 546.827 207.152 546.903 206.743 546.903C205.916 546.903 205.174 546.631 205.174 545.156V537.955H207.859V535.909Z" fill="white"/>
<path d="M153 674.5C153 662.074 163.074 652 175.5 652H241.5C253.926 652 264 662.074 264 674.5V674.5C264 686.926 253.926 697 241.5 697H175.5C163.074 697 153 686.926 153 674.5V674.5Z" fill="#242424"/>
<path d="M184.262 683.264C187.356 683.264 189.359 681.406 189.64 678.858H187.16C186.836 680.273 185.737 681.108 184.279 681.108C182.123 681.108 180.734 679.31 180.734 676.455C180.734 673.651 182.149 671.886 184.279 671.886C185.899 671.886 186.887 672.909 187.16 674.136H189.64C189.368 671.494 187.211 669.739 184.237 669.739C180.547 669.739 178.16 672.517 178.16 676.514C178.16 680.46 180.461 683.264 184.262 683.264ZM194.914 665.545H192.365V683H194.914V665.545ZM198.342 683H200.89V669.909H198.342V683ZM199.629 667.889C200.507 667.889 201.24 667.207 201.24 666.372C201.24 665.537 200.507 664.847 199.629 664.847C198.743 664.847 198.018 665.537 198.018 666.372C198.018 667.207 198.743 667.889 199.629 667.889ZM209.961 683.264C212.816 683.264 214.836 681.858 215.415 679.727L213.003 679.293C212.543 680.528 211.435 681.159 209.986 681.159C207.804 681.159 206.338 679.744 206.27 677.222H215.577V676.318C215.577 671.588 212.748 669.739 209.782 669.739C206.134 669.739 203.73 672.517 203.73 676.54C203.73 680.605 206.1 683.264 209.961 683.264ZM206.279 675.312C206.381 673.455 207.728 671.844 209.799 671.844C211.776 671.844 213.071 673.31 213.08 675.312H206.279ZM220.953 675.227C220.953 673.139 222.231 671.946 224.004 671.946C225.734 671.946 226.782 673.08 226.782 674.98V683H229.331V674.673C229.331 671.435 227.549 669.739 224.873 669.739C222.904 669.739 221.618 670.651 221.012 672.04H220.85V669.909H218.404V683H220.953V675.227ZM238.859 669.909H236.174V666.773H233.626V669.909H231.708V671.955H233.626V679.685C233.618 682.062 235.433 683.213 237.444 683.17C238.254 683.162 238.799 683.009 239.098 682.898L238.637 680.793C238.467 680.827 238.152 680.903 237.743 680.903C236.916 680.903 236.174 680.631 236.174 679.156V671.955H238.859V669.909Z" fill="white"/>
<path d="M201 810.5C201 798.074 211.074 788 223.5 788H289.5C301.926 788 312 798.074 312 810.5V810.5C312 822.926 301.926 833 289.5 833H223.5C211.074 833 201 822.926 201 810.5V810.5Z" fill="#242424"/>
<path d="M232.262 819.264C235.356 819.264 237.359 817.406 237.64 814.858H235.16C234.836 816.273 233.737 817.108 232.279 817.108C230.123 817.108 228.734 815.31 228.734 812.455C228.734 809.651 230.149 807.886 232.279 807.886C233.899 807.886 234.887 808.909 235.16 810.136H237.64C237.368 807.494 235.211 805.739 232.237 805.739C228.547 805.739 226.16 808.517 226.16 812.514C226.16 816.46 228.461 819.264 232.262 819.264ZM242.914 801.545H240.365V819H242.914V801.545ZM246.342 819H248.89V805.909H246.342V819ZM247.629 803.889C248.507 803.889 249.24 803.207 249.24 802.372C249.24 801.537 248.507 800.847 247.629 800.847C246.743 800.847 246.018 801.537 246.018 802.372C246.018 803.207 246.743 803.889 247.629 803.889ZM257.961 819.264C260.816 819.264 262.836 817.858 263.415 815.727L261.003 815.293C260.543 816.528 259.435 817.159 257.986 817.159C255.804 817.159 254.338 815.744 254.27 813.222H263.577V812.318C263.577 807.588 260.748 805.739 257.782 805.739C254.134 805.739 251.73 808.517 251.73 812.54C251.73 816.605 254.1 819.264 257.961 819.264ZM254.279 811.312C254.381 809.455 255.728 807.844 257.799 807.844C259.776 807.844 261.071 809.31 261.08 811.312H254.279ZM268.953 811.227C268.953 809.139 270.231 807.946 272.004 807.946C273.734 807.946 274.782 809.08 274.782 810.98V819H277.331V810.673C277.331 807.435 275.549 805.739 272.873 805.739C270.904 805.739 269.618 806.651 269.012 808.04H268.85V805.909H266.404V819H268.953V811.227ZM286.859 805.909H284.174V802.773H281.626V805.909H279.708V807.955H281.626V815.685C281.618 818.062 283.433 819.213 285.444 819.17C286.254 819.162 286.799 819.009 287.098 818.898L286.637 816.793C286.467 816.827 286.152 816.903 285.743 816.903C284.916 816.903 284.174 816.631 284.174 815.156V807.955H286.859V805.909Z" fill="white"/>
<path d="M285 922.5C285 910.074 295.074 900 307.5 900H373.5C385.926 900 396 910.074 396 922.5V922.5C396 934.926 385.926 945 373.5 945H307.5C295.074 945 285 934.926 285 922.5V922.5Z" fill="#242424"/>
<path d="M316.262 931.264C319.356 931.264 321.359 929.406 321.64 926.858H319.16C318.836 928.273 317.737 929.108 316.279 929.108C314.123 929.108 312.734 927.31 312.734 924.455C312.734 921.651 314.149 919.886 316.279 919.886C317.899 919.886 318.887 920.909 319.16 922.136H321.64C321.368 919.494 319.211 917.739 316.237 917.739C312.547 917.739 310.16 920.517 310.16 924.514C310.16 928.46 312.461 931.264 316.262 931.264ZM326.914 913.545H324.365V931H326.914V913.545ZM330.342 931H332.89V917.909H330.342V931ZM331.629 915.889C332.507 915.889 333.24 915.207 333.24 914.372C333.24 913.537 332.507 912.847 331.629 912.847C330.743 912.847 330.018 913.537 330.018 914.372C330.018 915.207 330.743 915.889 331.629 915.889ZM341.961 931.264C344.816 931.264 346.836 929.858 347.415 927.727L345.003 927.293C344.543 928.528 343.435 929.159 341.986 929.159C339.804 929.159 338.338 927.744 338.27 925.222H347.577V924.318C347.577 919.588 344.748 917.739 341.782 917.739C338.134 917.739 335.73 920.517 335.73 924.54C335.73 928.605 338.1 931.264 341.961 931.264ZM338.279 923.312C338.381 921.455 339.728 919.844 341.799 919.844C343.776 919.844 345.071 921.31 345.08 923.312H338.279ZM352.953 923.227C352.953 921.139 354.231 919.946 356.004 919.946C357.734 919.946 358.782 921.08 358.782 922.98V931H361.331V922.673C361.331 919.435 359.549 917.739 356.873 917.739C354.904 917.739 353.618 918.651 353.012 920.04H352.85V917.909H350.404V931H352.953V923.227ZM370.859 917.909H368.174V914.773H365.626V917.909H363.708V919.955H365.626V927.685C365.618 930.062 367.433 931.213 369.444 931.17C370.254 931.162 370.799 931.009 371.098 930.898L370.637 928.793C370.467 928.827 370.152 928.903 369.743 928.903C368.916 928.903 368.174 928.631 368.174 927.156V919.955H370.859V917.909Z" fill="white"/>
<path d="M285 156.5C285 144.074 295.074 134 307.5 134H373.5C385.926 134 396 144.074 396 156.5V156.5C396 168.926 385.926 179 373.5 179H307.5C295.074 179 285 168.926 285 156.5V156.5Z" fill="#242424"/>
<path d="M316.262 165.264C319.356 165.264 321.359 163.406 321.64 160.858H319.16C318.836 162.273 317.737 163.108 316.279 163.108C314.123 163.108 312.734 161.31 312.734 158.455C312.734 155.651 314.149 153.886 316.279 153.886C317.899 153.886 318.887 154.909 319.16 156.136H321.64C321.368 153.494 319.211 151.739 316.237 151.739C312.547 151.739 310.16 154.517 310.16 158.514C310.16 162.46 312.461 165.264 316.262 165.264ZM326.914 147.545H324.365V165H326.914V147.545ZM330.342 165H332.89V151.909H330.342V165ZM331.629 149.889C332.507 149.889 333.24 149.207 333.24 148.372C333.24 147.537 332.507 146.847 331.629 146.847C330.743 146.847 330.018 147.537 330.018 148.372C330.018 149.207 330.743 149.889 331.629 149.889ZM341.961 165.264C344.816 165.264 346.836 163.858 347.415 161.727L345.003 161.293C344.543 162.528 343.435 163.159 341.986 163.159C339.804 163.159 338.338 161.744 338.27 159.222H347.577V158.318C347.577 153.588 344.748 151.739 341.782 151.739C338.134 151.739 335.73 154.517 335.73 158.54C335.73 162.605 338.1 165.264 341.961 165.264ZM338.279 157.312C338.381 155.455 339.728 153.844 341.799 153.844C343.776 153.844 345.071 155.31 345.08 157.312H338.279ZM352.953 157.227C352.953 155.139 354.231 153.946 356.004 153.946C357.734 153.946 358.782 155.08 358.782 156.98V165H361.331V156.673C361.331 153.435 359.549 151.739 356.873 151.739C354.904 151.739 353.618 152.651 353.012 154.04H352.85V151.909H350.404V165H352.953V157.227ZM370.859 151.909H368.174V148.773H365.626V151.909H363.708V153.955H365.626V161.685C365.618 164.062 367.433 165.213 369.444 165.17C370.254 165.162 370.799 165.009 371.098 164.898L370.637 162.793C370.467 162.827 370.152 162.903 369.743 162.903C368.916 162.903 368.174 162.631 368.174 161.156V153.955H370.859V151.909Z" fill="white"/>
<path d="M201 285.5C201 273.074 211.074 263 223.5 263H289.5C301.926 263 312 273.074 312 285.5V285.5C312 297.926 301.926 308 289.5 308H223.5C211.074 308 201 297.926 201 285.5V285.5Z" fill="#242424"/>
<path d="M232.262 294.264C235.356 294.264 237.359 292.406 237.64 289.858H235.16C234.836 291.273 233.737 292.108 232.279 292.108C230.123 292.108 228.734 290.31 228.734 287.455C228.734 284.651 230.149 282.886 232.279 282.886C233.899 282.886 234.887 283.909 235.16 285.136H237.64C237.368 282.494 235.211 280.739 232.237 280.739C228.547 280.739 226.16 283.517 226.16 287.514C226.16 291.46 228.461 294.264 232.262 294.264ZM242.914 276.545H240.365V294H242.914V276.545ZM246.342 294H248.89V280.909H246.342V294ZM247.629 278.889C248.507 278.889 249.24 278.207 249.24 277.372C249.24 276.537 248.507 275.847 247.629 275.847C246.743 275.847 246.018 276.537 246.018 277.372C246.018 278.207 246.743 278.889 247.629 278.889ZM257.961 294.264C260.816 294.264 262.836 292.858 263.415 290.727L261.003 290.293C260.543 291.528 259.435 292.159 257.986 292.159C255.804 292.159 254.338 290.744 254.27 288.222H263.577V287.318C263.577 282.588 260.748 280.739 257.782 280.739C254.134 280.739 251.73 283.517 251.73 287.54C251.73 291.605 254.1 294.264 257.961 294.264ZM254.279 286.312C254.381 284.455 255.728 282.844 257.799 282.844C259.776 282.844 261.071 284.31 261.08 286.312H254.279ZM268.953 286.227C268.953 284.139 270.231 282.946 272.004 282.946C273.734 282.946 274.782 284.08 274.782 285.98V294H277.331V285.673C277.331 282.435 275.549 280.739 272.873 280.739C270.904 280.739 269.618 281.651 269.012 283.04H268.85V280.909H266.404V294H268.953V286.227ZM286.859 280.909H284.174V277.773H281.626V280.909H279.708V282.955H281.626V290.685C281.618 293.062 283.433 294.213 285.444 294.17C286.254 294.162 286.799 294.009 287.098 293.898L286.637 291.793C286.467 291.827 286.152 291.903 285.743 291.903C284.916 291.903 284.174 291.631 284.174 290.156V282.955H286.859V280.909Z" fill="white"/>
<circle cx="694" cy="537" r="133" fill="#FAF9F8"/>
<circle cx="694" cy="537" r="115" fill="#D6D2CC"/>
<path d="M634.19 515.812H639.627V531H642.252V515.812H647.698V513.545H634.19V515.812ZM649.119 531H651.668V523.006C651.668 521.301 652.989 520.065 654.753 520.065C655.247 520.065 655.631 520.168 655.938 520.321L656.756 518.19C656.321 517.901 655.759 517.713 655.043 517.713C653.491 517.713 652.196 518.582 651.719 519.989H651.582V517.909H649.119V531ZM662.374 531.29C664.539 531.29 665.758 530.19 666.244 529.21H666.346V531H668.835V522.307C668.835 518.497 665.835 517.739 663.755 517.739C661.386 517.739 659.204 518.693 658.352 521.08L660.746 521.625C661.121 520.696 662.076 519.801 663.789 519.801C665.434 519.801 666.278 520.662 666.278 522.145V522.205C666.278 523.134 665.323 523.116 662.971 523.389C660.491 523.679 657.951 524.327 657.951 527.301C657.951 529.875 659.886 531.29 662.374 531.29ZM662.928 529.244C661.488 529.244 660.448 528.597 660.448 527.335C660.448 525.972 661.658 525.486 663.133 525.29C663.96 525.179 665.92 524.957 666.286 524.591V526.278C666.286 527.83 665.05 529.244 662.928 529.244ZM677.129 531.256C679.516 531.256 680.453 529.798 680.913 528.963H681.126V531H683.615V513.545H681.067V520.031H680.913C680.453 519.222 679.584 517.739 677.146 517.739C673.984 517.739 671.658 520.236 671.658 524.48C671.658 528.716 673.95 531.256 677.129 531.256ZM677.692 529.082C675.416 529.082 674.232 527.08 674.232 524.455C674.232 521.855 675.391 519.903 677.692 519.903C679.916 519.903 681.109 521.719 681.109 524.455C681.109 527.207 679.891 529.082 677.692 529.082ZM687.252 531H689.8V517.909H687.252V531ZM688.539 515.889C689.417 515.889 690.15 515.207 690.15 514.372C690.15 513.537 689.417 512.847 688.539 512.847C687.653 512.847 686.928 513.537 686.928 514.372C686.928 515.207 687.653 515.889 688.539 515.889ZM699.339 517.909H696.655V514.773H694.107V517.909H692.189V519.955H694.107V527.685C694.098 530.062 695.913 531.213 697.925 531.17C698.734 531.162 699.28 531.009 699.578 530.898L699.118 528.793C698.947 528.827 698.632 528.903 698.223 528.903C697.396 528.903 696.655 528.631 696.655 527.156V519.955H699.339V517.909ZM702.158 531H704.707V517.909H702.158V531ZM703.445 515.889C704.323 515.889 705.056 515.207 705.056 514.372C705.056 513.537 704.323 512.847 703.445 512.847C702.559 512.847 701.835 513.537 701.835 514.372C701.835 515.207 702.559 515.889 703.445 515.889ZM713.649 531.264C717.339 531.264 719.751 528.562 719.751 524.514C719.751 520.44 717.339 517.739 713.649 517.739C709.959 517.739 707.547 520.44 707.547 524.514C707.547 528.562 709.959 531.264 713.649 531.264ZM713.658 529.125C711.246 529.125 710.121 527.02 710.121 524.506C710.121 522 711.246 519.869 713.658 519.869C716.053 519.869 717.178 522 717.178 524.506C717.178 527.02 716.053 529.125 713.658 529.125ZM725.144 523.227C725.144 521.139 726.423 519.946 728.195 519.946C729.925 519.946 730.974 521.08 730.974 522.98V531H733.522V522.673C733.522 519.435 731.741 517.739 729.065 517.739C727.096 517.739 725.809 518.651 725.204 520.04H725.042V517.909H722.596V531H725.144V523.227ZM740.749 531.29C742.914 531.29 744.133 530.19 744.619 529.21H744.721V531H747.21V522.307C747.21 518.497 744.21 517.739 742.13 517.739C739.761 517.739 737.579 518.693 736.727 521.08L739.121 521.625C739.496 520.696 740.451 519.801 742.164 519.801C743.809 519.801 744.653 520.662 744.653 522.145V522.205C744.653 523.134 743.698 523.116 741.346 523.389C738.866 523.679 736.326 524.327 736.326 527.301C736.326 529.875 738.261 531.29 740.749 531.29ZM741.303 529.244C739.863 529.244 738.823 528.597 738.823 527.335C738.823 525.972 740.033 525.486 741.508 525.29C742.335 525.179 744.295 524.957 744.661 524.591V526.278C744.661 527.83 743.425 529.244 741.303 529.244ZM753.152 513.545H750.604V531H753.152V513.545ZM618.681 542.545H615.835L622.116 560H625.159L631.44 542.545H628.593L623.735 556.761H623.539L618.681 542.545ZM633.961 560H636.594V553.864H640.174C644.222 553.864 646.225 551.418 646.225 548.196C646.225 544.983 644.239 542.545 640.182 542.545H633.961V560ZM636.594 551.631V544.804H639.901C642.509 544.804 643.574 546.219 643.574 548.196C643.574 550.173 642.509 551.631 639.935 551.631H636.594ZM663.4 542.545H660.792V555.364H660.63L651.75 542.545H649.312V560H651.946V547.199H652.108L660.98 560H663.4V542.545ZM685.406 548.06H688.108C687.52 544.659 684.613 542.307 680.846 542.307C676.329 542.307 673.031 545.707 673.031 551.281C673.031 556.804 676.235 560.239 680.966 560.239C685.201 560.239 688.227 557.46 688.227 553.054V551.068H681.366V553.241H685.679C685.619 556.054 683.761 557.835 680.966 557.835C677.889 557.835 675.647 555.509 675.647 551.264C675.647 547.037 677.906 544.71 680.863 544.71C683.181 544.71 684.75 545.989 685.406 548.06ZM695.175 560.29C697.34 560.29 698.559 559.19 699.044 558.21H699.147V560H701.635V551.307C701.635 547.497 698.635 546.739 696.556 546.739C694.186 546.739 692.005 547.693 691.152 550.08L693.547 550.625C693.922 549.696 694.877 548.801 696.59 548.801C698.235 548.801 699.078 549.662 699.078 551.145V551.205C699.078 552.134 698.124 552.116 695.772 552.389C693.292 552.679 690.752 553.327 690.752 556.301C690.752 558.875 692.686 560.29 695.175 560.29ZM695.729 558.244C694.289 558.244 693.249 557.597 693.249 556.335C693.249 554.972 694.459 554.486 695.934 554.29C696.76 554.179 698.721 553.957 699.087 553.591V555.278C699.087 556.83 697.851 558.244 695.729 558.244ZM711.14 546.909H708.456V543.773H705.907V546.909H703.99V548.955H705.907V556.685C705.899 559.062 707.714 560.213 709.725 560.17C710.535 560.162 711.081 560.009 711.379 559.898L710.919 557.793C710.748 557.827 710.433 557.903 710.024 557.903C709.197 557.903 708.456 557.631 708.456 556.156V548.955H711.14V546.909ZM719.461 560.264C722.316 560.264 724.336 558.858 724.915 556.727L722.503 556.293C722.043 557.528 720.935 558.159 719.486 558.159C717.304 558.159 715.838 556.744 715.77 554.222H725.077V553.318C725.077 548.588 722.248 546.739 719.282 546.739C715.634 546.739 713.23 549.517 713.23 553.54C713.23 557.605 715.6 560.264 719.461 560.264ZM715.779 552.312C715.881 550.455 717.228 548.844 719.299 548.844C721.276 548.844 722.571 550.31 722.58 552.312H715.779ZM730.719 560H733.31L735.969 550.548H736.165L738.824 560H741.424L745.267 546.909H742.634L740.086 556.48H739.958L737.401 546.909H734.767L732.194 556.523H732.066L729.5 546.909H726.867L730.719 560ZM751.495 560.29C753.66 560.29 754.879 559.19 755.365 558.21H755.467V560H757.956V551.307C757.956 547.497 754.956 546.739 752.876 546.739C750.507 546.739 748.325 547.693 747.473 550.08L749.868 550.625C750.243 549.696 751.197 548.801 752.91 548.801C754.555 548.801 755.399 549.662 755.399 551.145V551.205C755.399 552.134 754.444 552.116 752.092 552.389C749.612 552.679 747.072 553.327 747.072 556.301C747.072 558.875 749.007 560.29 751.495 560.29ZM752.049 558.244C750.609 558.244 749.569 557.597 749.569 556.335C749.569 554.972 750.779 554.486 752.254 554.29C753.081 554.179 755.041 553.957 755.407 553.591V555.278C755.407 556.83 754.172 558.244 752.049 558.244ZM762.398 565.088C764.512 565.088 765.884 563.946 766.625 561.909L772.08 546.909H769.344L766.029 557.068H765.892L762.577 546.909H759.85L764.64 560.17L764.265 561.202C763.625 562.906 762.713 563.051 761.307 562.676L760.694 564.79C760.966 564.918 761.605 565.088 762.398 565.088Z" fill="#242424"/>
</svg>
